<svg xmlns="http://www.w3.org/2000/svg" width="10in" height="10in" viewBox="0 0 720 720">
  <g>
    <path d="M361.377,510.345h46.775a17.526,17.526,0,0,1-8.427-14.958V479.321c0-10.046,8.811-18.857,18.856-18.857a18.656,18.656,0,0,1,18.857,18.857c0,1.31.077,4.65.15,7.879.075,3.308.153,6.727.153,8.12a17.3,17.3,0,0,1-8.357,15.025h45.728V359.768H361.377Zm43.769-98.681a19.3,19.3,0,0,1,13.8-6.1c10.1,0,18.385,8.253,18.856,18.79a17.4,17.4,0,0,1-5.059,12.821,19.3,19.3,0,0,1-13.8,6.1c-10.1,0-18.384-8.254-18.855-18.79A17.4,17.4,0,0,1,405.146,411.664Z" fill="#e9eae8"/>
    <path d="M475.113,644.3a20.883,20.883,0,0,1-12.82,4.947c-10.1,0-18.383-8.254-18.855-18.79a17.4,17.4,0,0,1,5.057-12.82,19.3,19.3,0,0,1,13.8-6.1c4.016,0,9.071.934,12.82,3.4V576.272a19.177,19.177,0,0,1-15.82,8.891c-10.1,0-18.383-8.254-18.855-18.79a17.392,17.392,0,0,1,5.058-12.821,19.3,19.3,0,0,1,13.8-6.1,18.79,18.79,0,0,1,15.82,8.6v-42.7H361.377V669.787H475.113Z" fill="#e9eae8"/>
    <path d="M361.377,356.768h54.691V316.041h3v40.727h56.045V314.937H444.922v-3h30.191V203.791H361.377Zm54.708-98.424h0a17.4,17.4,0,0,1,5.058-12.821,19.3,19.3,0,0,1,13.8-6.1c10.1,0,18.385,8.254,18.856,18.79a17.4,17.4,0,0,1-5.058,12.822,19.3,19.3,0,0,1-13.8,6.1c-10.1,0-18.383-8.254-18.854-18.791h0Z" fill="#e9eae8"/>
    <path d="M575.188,550.833V513.347c-6.4,0-23.659,0-41.975,0l-55.1.132.013,44.4c.013.189.024.379.024.57s-.011.354-.024.53l-.013.2.013,5.553c.013.19.024.379.024.571,0,.177-.011.353-.024.529l-.014.226v48.378a15.272,15.272,0,0,1,10.59-3.851c10.1,0,18.385,8.254,18.857,18.79A17.4,17.4,0,0,1,502.5,642.2a19.3,19.3,0,0,1-13.8,6.1,15.942,15.942,0,0,1-10.59-4.048v25.533h97.075v-88.61a18.89,18.89,0,0,1-11.027,3.7c-10.1,0-18.385-8.253-18.855-18.789a17.4,17.4,0,0,1,5.057-12.821,19.3,19.3,0,0,1,13.8-6.1A18.193,18.193,0,0,1,575.188,550.833Z" fill="#e9eae8"/>
    <path d="M254.216,200.791h38.567a20,20,0,0,1-7.188-14.62,17.4,17.4,0,0,1,5.058-12.821,19.3,19.3,0,0,1,13.8-6.1c10.1,0,18.385,8.254,18.856,18.791a18.03,18.03,0,0,1-7.2,14.753h42.277V50.213H313.751a19.794,19.794,0,0,1,9.554,16.243,17.4,17.4,0,0,1-5.058,12.821,19.3,19.3,0,0,1-13.8,6.1c-10.1,0-18.384-8.254-18.854-18.79a17.4,17.4,0,0,1,5.057-12.821,20.336,20.336,0,0,1,4.523-3.556H254.216Z" fill="#e9eae8"/>
    <path d="M361.377,200.791h46.776a17.523,17.523,0,0,1-8.428-14.958V169.767c0-10.045,8.811-18.857,18.856-18.857a18.656,18.656,0,0,1,18.857,18.857c0,1.31.077,4.65.15,7.879.075,3.307.153,6.726.153,8.12a17.3,17.3,0,0,1-8.358,15.025h45.729V50.213H361.377Zm43.769-98.681a19.294,19.294,0,0,1,13.8-6.1c10.1,0,18.385,8.254,18.856,18.79a17.4,17.4,0,0,1-5.058,12.822,19.3,19.3,0,0,1-13.8,6.1c-10.1,0-18.384-8.254-18.855-18.791h0A17.406,17.406,0,0,1,405.146,102.11Z" fill="#e9eae8"/>
    <path d="M254.216,356.768H358.377v-25.88a19.05,19.05,0,0,1-15.986,9.01,18.657,18.657,0,0,1-18.858-18.857c0-10.045,8.812-18.857,18.858-18.857a18.685,18.685,0,0,1,15.986,8.718V268.749a19.8,19.8,0,0,1-2.075,2.567,19.3,19.3,0,0,1-13.8,6.1c-10.1,0-18.384-8.254-18.855-18.791h0a17.4,17.4,0,0,1,5.059-12.821,19.3,19.3,0,0,1,13.8-6.1,18.666,18.666,0,0,1,15.873,9.023V203.791H254.216Z" fill="#e9eae8"/>
    <path d="M575.188,359.768H478.113V510.345l48.371.006c-6.508-4.508-10.413-13.211-10.476-19.8-.042-4.22-.011-8.491.018-12.622.019-2.711.038-5.425.038-8.144,0-12.016,6.168-17.857,18.858-17.857.18,0,.608-.006,1.239-.015,15.747-.209,25.845.093,30.013.905a18.7,18.7,0,0,1,9.014,4.894Zm-27.414,63.349a19.3,19.3,0,0,1-13.795,6.1c-10.1,0-18.385-8.254-18.856-18.79a17.4,17.4,0,0,1,5.058-12.823,19.3,19.3,0,0,1,13.8-6.1c10.1,0,18.383,8.254,18.855,18.79A17.4,17.4,0,0,1,547.774,423.117Z" fill="#e9eae8"/>
    <path d="M251.216,291.245h-31.88v-3h31.88V203.791h-106.4V356.768h106.4Zm-63.049-45.494a19.3,19.3,0,0,1,13.8-6.1c10.1,0,18.383,8.254,18.855,18.791h0a17.4,17.4,0,0,1-5.057,12.82,19.3,19.3,0,0,1-13.8,6.1c-10.1,0-18.385-8.254-18.856-18.79A17.4,17.4,0,0,1,188.167,245.751Zm27.6,87.76a19.3,19.3,0,0,1-13.8,6.1c-10.1,0-18.385-8.253-18.856-18.79A17.4,17.4,0,0,1,188.167,308a19.3,19.3,0,0,1,13.8-6.1c10.1,0,18.383,8.253,18.855,18.79A17.4,17.4,0,0,1,215.763,333.511Z" fill="#e9eae8"/>
    <path d="M322.678,496.558v-64.4c0-9.355,7.208-23.2,22.678-23.2,7.267,0,10.832,1.762,13.021,4.9v-54.09H254.192l-.853,55.33c2.638-3.767,6.477-6.136,14.329-6.136a17.992,17.992,0,0,1,15.815,8.352,28.8,28.8,0,0,1,4.206,15.332l-.006,64c0,6.413-12.647,11.045-23.488,13.837h81.689C335.179,507.687,322.678,503.03,322.678,496.558Z" fill="#e9eae8"/>
    <path d="M144.812,200.791h106.4V139.146a19.634,19.634,0,0,1-15.462,8.145c-10.1,0-18.383-8.253-18.856-18.79a17.4,17.4,0,0,1,5.058-12.821,19.3,19.3,0,0,1,13.8-6.1,18.512,18.512,0,0,1,15.462,8.356V50.213h-106.4Z" fill="#e9eae8"/>
    <path d="M575.188,50.213H478.113V200.791h27.728V152.8c-9.41-.77-16.908-8.719-17.356-18.73h0a17.4,17.4,0,0,1,5.058-12.82,19.3,19.3,0,0,1,13.8-6.1c10.1,0,18.385,8.253,18.855,18.79a17.4,17.4,0,0,1-5.057,12.821,19.5,19.5,0,0,1-12.3,6.038v48H546.4V152.8c-9.41-.77-16.908-8.719-17.355-18.73h0a17.4,17.4,0,0,1,5.058-12.82,19.3,19.3,0,0,1,13.8-6.1c10.1,0,18.384,8.253,18.855,18.79a17.4,17.4,0,0,1-5.058,12.821,19.492,19.492,0,0,1-12.3,6.038v48h25.789Z" fill="#e9eae8"/>
  </g>
</svg>
